<svg id="visual" viewBox="0 0 1920 1080" width="1920" height="1080" xmlns="http://www.w3.org/2000/svg" xmlns:xlink="http://www.w3.org/1999/xlink" version="1.1"><rect x="0" y="0" width="1920" height="1080" fill="#001220"></rect><path d="M0 712L45.7 718.5C91.3 725 182.7 738 274.2 753.3C365.7 768.7 457.3 786.3 548.8 795.3C640.3 804.3 731.7 804.7 823 779.3C914.3 754 1005.7 703 1097 687.5C1188.3 672 1279.7 692 1371.2 708.5C1462.7 725 1554.3 738 1645.8 736.8C1737.3 735.7 1828.7 720.3 1874.3 712.7L1920 705L1920 1081L1874.3 1081C1828.7 1081 1737.3 1081 1645.8 1081C1554.3 1081 1462.7 1081 1371.2 1081C1279.7 1081 1188.3 1081 1097 1081C1005.7 1081 914.3 1081 823 1081C731.7 1081 640.3 1081 548.8 1081C457.3 1081 365.7 1081 274.2 1081C182.7 1081 91.3 1081 45.7 1081L0 1081Z" fill="#fa7268"></path><path d="M0 746L45.7 739.7C91.3 733.3 182.7 720.7 274.2 730.7C365.7 740.7 457.3 773.3 548.8 784.2C640.3 795 731.7 784 823 771.5C914.3 759 1005.7 745 1097 737.3C1188.3 729.7 1279.7 728.3 1371.2 749.3C1462.7 770.3 1554.3 813.7 1645.8 813.2C1737.3 812.7 1828.7 768.3 1874.3 746.2L1920 724L1920 1081L1874.3 1081C1828.7 1081 1737.3 1081 1645.8 1081C1554.3 1081 1462.7 1081 1371.2 1081C1279.7 1081 1188.3 1081 1097 1081C1005.7 1081 914.3 1081 823 1081C731.7 1081 640.3 1081 548.8 1081C457.3 1081 365.7 1081 274.2 1081C182.7 1081 91.3 1081 45.7 1081L0 1081Z" fill="#ef5f67"></path><path d="M0 879L45.7 872.8C91.3 866.7 182.7 854.3 274.2 847C365.7 839.7 457.3 837.3 548.8 828.2C640.3 819 731.7 803 823 809.8C914.3 816.7 1005.7 846.3 1097 854.3C1188.3 862.3 1279.7 848.7 1371.2 843.5C1462.7 838.3 1554.3 841.7 1645.8 849.7C1737.3 857.7 1828.7 870.3 1874.3 876.7L1920 883L1920 1081L1874.3 1081C1828.7 1081 1737.3 1081 1645.8 1081C1554.3 1081 1462.7 1081 1371.2 1081C1279.7 1081 1188.3 1081 1097 1081C1005.7 1081 914.3 1081 823 1081C731.7 1081 640.3 1081 548.8 1081C457.3 1081 365.7 1081 274.2 1081C182.7 1081 91.3 1081 45.7 1081L0 1081Z" fill="#e34c67"></path><path d="M0 964L45.7 955.2C91.3 946.3 182.7 928.7 274.2 918.2C365.7 907.7 457.3 904.3 548.8 905.5C640.3 906.7 731.7 912.3 823 913.3C914.3 914.3 1005.7 910.7 1097 920.2C1188.3 929.7 1279.7 952.3 1371.2 950.7C1462.7 949 1554.3 923 1645.8 910C1737.3 897 1828.7 897 1874.3 897L1920 897L1920 1081L1874.3 1081C1828.7 1081 1737.3 1081 1645.8 1081C1554.3 1081 1462.7 1081 1371.2 1081C1279.7 1081 1188.3 1081 1097 1081C1005.7 1081 914.3 1081 823 1081C731.7 1081 640.3 1081 548.8 1081C457.3 1081 365.7 1081 274.2 1081C182.7 1081 91.3 1081 45.7 1081L0 1081Z" fill="#d53867"></path><path d="M0 1007L45.7 1004.3C91.3 1001.7 182.7 996.3 274.2 1000.8C365.7 1005.3 457.3 1019.7 548.8 1021.7C640.3 1023.7 731.7 1013.3 823 999C914.3 984.7 1005.7 966.3 1097 971.3C1188.3 976.3 1279.7 1004.7 1371.2 1007.3C1462.7 1010 1554.3 987 1645.8 975C1737.3 963 1828.7 962 1874.3 961.5L1920 961L1920 1081L1874.3 1081C1828.7 1081 1737.3 1081 1645.8 1081C1554.3 1081 1462.7 1081 1371.2 1081C1279.7 1081 1188.3 1081 1097 1081C1005.7 1081 914.3 1081 823 1081C731.7 1081 640.3 1081 548.8 1081C457.3 1081 365.7 1081 274.2 1081C182.7 1081 91.3 1081 45.7 1081L0 1081Z" fill="#c62368"></path></svg>